<svg width="1024" height="1024" viewBox="0 0 1024 1024" xmlns="http://www.w3.org/2000/svg">
  <defs>
    <linearGradient id="bg" x1="0" y1="0" x2="1024" y2="1024" gradientUnits="userSpaceOnUse">
      <stop offset="0" stop-color="#1b294a"/>
      <stop offset="0.55" stop-color="#131a2e"/>
      <stop offset="1" stop-color="#0b1020"/>
    </linearGradient>
    <radialGradient id="glow" cx="512" cy="500" r="430" gradientUnits="userSpaceOnUse">
      <stop offset="0" stop-color="#f5a623" stop-opacity="0.28"/>
      <stop offset="0.55" stop-color="#f5a623" stop-opacity="0.06"/>
      <stop offset="1" stop-color="#f5a623" stop-opacity="0"/>
    </radialGradient>
    <linearGradient id="agentAmber" x1="24" y1="14" x2="76" y2="72" gradientUnits="userSpaceOnUse">
      <stop offset="0" stop-color="#ffe0a3"/>
      <stop offset="0.5" stop-color="#ffcf72"/>
      <stop offset="1" stop-color="#f5a623"/>
    </linearGradient>
  </defs>

  <rect x="0" y="0" width="1024" height="1024" rx="230" fill="url(#bg)"/>
  <rect x="0" y="0" width="1024" height="1024" rx="230" fill="url(#glow)"/>
  <rect x="6" y="6" width="1012" height="1012" rx="226" fill="none" stroke="#ffffff" stroke-opacity="0.06" stroke-width="3"/>

  <!-- agent avatar: robot head with headphones + waveform mouth -->
  <g transform="translate(12,87) scale(10)">
    <line x1="50" y1="30" x2="50" y2="20" stroke="url(#agentAmber)" stroke-width="4" stroke-linecap="round"/>
    <circle cx="50" cy="16" r="5" fill="url(#agentAmber)"/>

    <rect x="14" y="41" width="9" height="20" rx="4.5" fill="url(#agentAmber)"/>
    <rect x="77" y="41" width="9" height="20" rx="4.5" fill="url(#agentAmber)"/>

    <rect x="24" y="30" width="52" height="44" rx="15" fill="url(#agentAmber)"/>

    <circle cx="40" cy="47" r="5.5" fill="#131a2e"/>
    <circle cx="60" cy="47" r="5.5" fill="#131a2e"/>

    <g fill="#131a2e">
      <rect x="36" y="59" width="4" height="6" rx="2"/>
      <rect x="42" y="55" width="4" height="14" rx="2"/>
      <rect x="48" y="53" width="4" height="18" rx="2"/>
      <rect x="54" y="55" width="4" height="14" rx="2"/>
      <rect x="60" y="59" width="4" height="6" rx="2"/>
    </g>
  </g>
</svg>
